REM DIRINDEX 1\2,1\3,1\4,1\5,1\6
REM DIRNAME cjc129,folder01,folder02,folder03,folder04,folder05
TITLE ""
FILE "DISC1Track29.mp3" MP3
  TRACK 01 AUDIO
    TITLE "0:"
    INDEX 01 00:00:00
  TRACK 02 AUDIO
    TITLE "3:cjc129_0807"
    INDEX 01 00:00:03
  TRACK 03 AUDIO
    TITLE "0:"
    INDEX 01 00:01:28
  TRACK 04 AUDIO
    TITLE "5:cjc129_0808"
    INDEX 01 00:01:60
  TRACK 05 AUDIO
    TITLE "0:"
    INDEX 01 00:04:17
  TRACK 06 AUDIO
    TITLE "4:cjc129_0809"
    INDEX 01 00:05:05
  TRACK 07 AUDIO
    TITLE "0:"
    INDEX 01 00:06:31
  TRACK 08 AUDIO
    TITLE "6:cjc129_0810"
    INDEX 01 00:06:63
  TRACK 09 AUDIO
    TITLE "0:"
    INDEX 01 00:10:74
  TRACK 10 AUDIO
    TITLE "3:cjc129_0811"
    INDEX 01 00:12:52
  TRACK 11 AUDIO
    TITLE "0:"
    INDEX 01 00:13:73
  TRACK 12 AUDIO
    TITLE "5:cjc129_0812"
    INDEX 01 00:14:29
  TRACK 13 AUDIO
    TITLE "0:"
    INDEX 01 00:17:10
  TRACK 14 AUDIO
    TITLE "4:cjc129_0813"
    INDEX 01 00:17:74
  TRACK 15 AUDIO
    TITLE "0:"
    INDEX 01 00:19:20
  TRACK 16 AUDIO
    TITLE "6:cjc129_0814"
    INDEX 01 00:19:50
  TRACK 17 AUDIO
    TITLE "0:"
    INDEX 01 00:23:71
  TRACK 18 AUDIO
    TITLE "3:cjc129_0815"
    INDEX 01 00:25:46
  TRACK 19 AUDIO
    TITLE "0:"
    INDEX 01 00:27:10
  TRACK 20 AUDIO
    TITLE "5:cjc129_0816"
    INDEX 01 00:27:41
  TRACK 21 AUDIO
    TITLE "0:"
    INDEX 01 00:29:38
  TRACK 22 AUDIO
    TITLE "4:cjc129_0817"
    INDEX 01 00:30:30
  TRACK 23 AUDIO
    TITLE "0:"
    INDEX 01 00:31:67
  TRACK 24 AUDIO
    TITLE "6:cjc129_0818"
    INDEX 01 00:32:23
  TRACK 25 AUDIO
    TITLE "0:"
    INDEX 01 00:36:74
  TRACK 26 AUDIO
    TITLE "3:cjc129_0819"
    INDEX 01 00:38:47
  TRACK 27 AUDIO
    TITLE "0:"
    INDEX 01 00:39:70
  TRACK 28 AUDIO
    TITLE "5:cjc129_0820"
    INDEX 01 00:40:26
  TRACK 29 AUDIO
    TITLE "0:"
    INDEX 01 00:42:10
  TRACK 30 AUDIO
    TITLE "4:cjc129_0821"
    INDEX 01 00:43:01
  TRACK 31 AUDIO
    TITLE "0:"
    INDEX 01 00:44:26
  TRACK 32 AUDIO
    TITLE "6:cjc129_0822"
    INDEX 01 00:44:56
  TRACK 33 AUDIO
    TITLE "0:"
    INDEX 01 00:49:53
  TRACK 34 AUDIO
    TITLE "3:cjc129_0823"
    INDEX 01 00:51:26
  TRACK 35 AUDIO
    TITLE "0:"
    INDEX 01 00:52:41
  TRACK 36 AUDIO
    TITLE "5:cjc129_0824"
    INDEX 01 00:52:73
  TRACK 37 AUDIO
    TITLE "0:"
    INDEX 01 00:55:10
  TRACK 38 AUDIO
    TITLE "4:cjc129_0825"
    INDEX 01 00:56:02
  TRACK 39 AUDIO
    TITLE "0:"
    INDEX 01 00:57:17
  TRACK 40 AUDIO
    TITLE "6:cjc129_0826"
    INDEX 01 00:57:48
  TRACK 41 AUDIO
    TITLE "0:"
    INDEX 01 01:00:70
  TRACK 42 AUDIO
    TITLE "3:cjc129_0827"
    INDEX 01 01:02:46
  TRACK 43 AUDIO
    TITLE "0:"
    INDEX 01 01:04:48
  TRACK 44 AUDIO
    TITLE "5:cjc129_0828"
    INDEX 01 01:05:05
  TRACK 45 AUDIO
    TITLE "0:"
    INDEX 01 01:06:32
  TRACK 46 AUDIO
    TITLE "4:cjc129_0829"
    INDEX 01 01:07:21
  TRACK 47 AUDIO
    TITLE "0:"
    INDEX 01 01:09:22
  TRACK 48 AUDIO
    TITLE "6:cjc129_0830"
    INDEX 01 01:09:56
  TRACK 49 AUDIO
    TITLE "0:"
    INDEX 01 01:14:53
  TRACK 50 AUDIO
    TITLE "3:cjc129_0831"
    INDEX 01 01:16:28
  TRACK 51 AUDIO
    TITLE "0:"
    INDEX 01 01:17:43
  TRACK 52 AUDIO
    TITLE "5:cjc129_0832"
    INDEX 01 01:18:02
  TRACK 53 AUDIO
    TITLE "0:"
    INDEX 01 01:18:74
  TRACK 54 AUDIO
    TITLE "4:cjc129_0833"
    INDEX 01 01:19:66
  TRACK 55 AUDIO
    TITLE "0:"
    INDEX 01 01:21:04
  TRACK 56 AUDIO
    TITLE "6:cjc129_0834"
    INDEX 01 01:21:37
  TRACK 57 AUDIO
    TITLE "0:"
    INDEX 01 01:26:70
  TRACK 58 AUDIO
    TITLE "3:cjc129_0835"
    INDEX 01 01:28:45
  TRACK 59 AUDIO
    TITLE "0:"
    INDEX 01 01:29:58
  TRACK 60 AUDIO
    TITLE "5:cjc129_0836"
    INDEX 01 01:30:18
  TRACK 61 AUDIO
    TITLE "0:"
    INDEX 01 01:31:67
  TRACK 62 AUDIO
    TITLE "4:cjc129_0837"
    INDEX 01 01:32:59
  TRACK 63 AUDIO
    TITLE "0:"
    INDEX 01 01:33:74
  TRACK 64 AUDIO
    TITLE "6:cjc129_0838"
    INDEX 01 01:34:30
  TRACK 65 AUDIO
    TITLE "0:"
    INDEX 01 01:38:61
